<svg xmlns="http://www.w3.org/2000/svg" xmlns:xlink="http://www.w3.org/1999/xlink" width="840" height="515.91"><rect width="840" height="515.91" rx="5" ry="5" class="a"/><svg y="0%" x="0%"><circle cx="20" cy="20" r="6" fill="#ff5f58"/><circle cx="40" cy="20" r="6" fill="#ffbd2e"/><circle cx="60" cy="20" r="6" fill="#18c132"/></svg><svg height="455.91" viewBox="0 0 80 45.591" width="800" x="15" xmlns="http://www.w3.org/2000/svg" xmlns:xlink="http://www.w3.org/1999/xlink" y="50"><style>@keyframes k{0%{transform:translateX(0)}.1%{transform:translateX(-240px)}4.7%{transform:translateX(-320px)}8.6%{transform:translateX(-400px)}10.1%{transform:translateX(-480px)}11.4%{transform:translateX(-560px)}12.5%{transform:translateX(-640px)}13.7%{transform:translateX(-720px)}15.2%{transform:translateX(-800px)}16.2%{transform:translateX(-880px)}17.3%{transform:translateX(-960px)}18.6%{transform:translateX(-1040px)}21.6%{transform:translateX(-1120px)}22.3%{transform:translateX(-1200px)}23.1%{transform:translateX(-1280px)}25.9%{transform:translateX(-1360px)}28.8%{transform:translateX(-1440px)}31.8%{transform:translateX(-1600px)}33.3%{transform:translateX(-1760px)}41.2%{transform:translateX(-1840px)}44%{transform:translateX(-1920px)}45.8%{transform:translateX(-2000px)}47%{transform:translateX(-2080px)}51.1%{transform:translateX(-2160px)}57.5%{transform:translateX(-2240px)}59%{transform:translateX(-2320px)}60.5%{transform:translateX(-2400px)}62.5%{transform:translateX(-2480px)}63.7%{transform:translateX(-2560px)}66%{transform:translateX(-2640px)}69.5%{transform:translateX(-2800px)}70.8%{transform:translateX(-2960px)}78.8%{transform:translateX(-3040px)}80.9%{transform:translateX(-3200px)}81%{transform:translateX(-3280px)}88.9%{transform:translateX(-3360px)}91.8%{transform:translateX(-3440px)}92%{transform:translateX(-3600px)}99.9%{transform:translateX(-3680px)}to{transform:translateX(-3760px)}}.a{fill:#282d35}.f,.g,.h{fill:#a8cc8c;white-space:pre}.g,.h{fill:#b9c0cb}.h{fill:#73bef3}</style><g font-family="Monaco,Consolas,Menlo,'Bitstream Vera Sans Mono','Powerline Symbols',monospace" font-size="1.67"><defs><symbol id="1"><text y="1.67" class="f">Input:</text></symbol><symbol id="2"><text y="1.67" class="f">Input:</text><text x="7.014" y="1.67" class="f">&quot;Hello,</text></symbol><symbol id="3"><text y="1.67" class="f">Input:</text><text x="7.014" y="1.67" class="f">&quot;Hello,</text><text x="15.03" y="1.67" class="f">world!&quot;</text></symbol><symbol id="4"><text x="2.004" y="1.67" class="g">#</text><text x="4.008" y="1.67" class="g">│</text><text x="6.012" y="1.67" class="g">Value</text><text x="20.04" y="1.67" class="g">│</text><text x="22.044" y="1.67" class="g">Type</text></symbol><symbol id="5"><text x="1.002" y="1.67" class="g">───┼───────────────┼────────</text></symbol><symbol id="6"><text x="2.004" y="1.67" class="g">1</text><text x="4.008" y="1.67" class="g">│</text><text x="6.012" y="1.67" class="g">Hello,</text><text x="13.026" y="1.67" class="g">world!</text><text x="20.04" y="1.67" class="g">│</text><text x="22.044" y="1.67" class="h">String</text></symbol><symbol id="7"><text y="1.67" class="f">Input:</text><text x="7.014" y="1.67" class="f">1</text></symbol><symbol id="8"><text y="1.67" class="f">Input:</text><text x="7.014" y="1.67" class="f">1</text><text x="9.018" y="1.67" class="f">2</text></symbol><symbol id="9"><text y="1.67" class="f">Input:</text><text x="7.014" y="1.67" class="f">1</text><text x="9.018" y="1.67" class="f">2</text><text x="11.022" y="1.67" class="f">+</text></symbol><symbol id="10"><text y="1.67" class="f">Input:</text><text x="7.014" y="1.67" class="f">1</text><text x="9.018" y="1.67" class="f">2</text><text x="11.022" y="1.67" class="f">+</text><text x="13.026" y="1.67" class="f">3</text></symbol><symbol id="11"><text y="1.67" class="f">Input:</text><text x="7.014" y="1.67" class="f">1</text><text x="9.018" y="1.67" class="f">2</text><text x="11.022" y="1.67" class="f">+</text><text x="13.026" y="1.67" class="f">3</text><text x="15.03" y="1.67" class="f">4</text></symbol><symbol id="12"><text y="1.67" class="f">Input:</text><text x="7.014" y="1.67" class="f">1</text><text x="9.018" y="1.67" class="f">2</text><text x="11.022" y="1.67" class="f">+</text><text x="13.026" y="1.67" class="f">3</text><text x="15.03" y="1.67" class="f">4</text><text x="17.034" y="1.67" class="f">+</text></symbol><symbol id="13"><text x="2.004" y="1.67" class="g">3</text><text x="4.008" y="1.67" class="g">│</text><text x="6.012" y="1.67" class="g">Hello,</text><text x="13.026" y="1.67" class="g">world!</text><text x="20.04" y="1.67" class="g">│</text><text x="22.044" y="1.67" class="h">String</text></symbol><symbol id="14"><text x="2.004" y="1.67" class="g">2</text><text x="4.008" y="1.67" class="g">│</text><text x="6.012" y="1.67" class="g">3</text><text x="20.04" y="1.67" class="g">│</text><text x="22.044" y="1.67" class="h">Int32</text></symbol><symbol id="15"><text x="2.004" y="1.67" class="g">1</text><text x="4.008" y="1.67" class="g">│</text><text x="6.012" y="1.67" class="g">7</text><text x="20.04" y="1.67" class="g">│</text><text x="22.044" y="1.67" class="h">Int32</text></symbol><symbol id="16"><text y="1.67" class="f">Input:</text><text x="7.014" y="1.67" class="f">*</text></symbol><symbol id="17"><text x="2.004" y="1.67" class="g">2</text><text x="4.008" y="1.67" class="g">│</text><text x="6.012" y="1.67" class="g">Hello,</text><text x="13.026" y="1.67" class="g">world!</text><text x="20.04" y="1.67" class="g">│</text><text x="22.044" y="1.67" class="h">String</text></symbol><symbol id="18"><text x="2.004" y="1.67" class="g">1</text><text x="4.008" y="1.67" class="g">│</text><text x="6.012" y="1.67" class="g">21</text><text x="20.04" y="1.67" class="g">│</text><text x="22.044" y="1.67" class="h">Int32</text></symbol><symbol id="19"><text y="1.67" class="f">Input:</text><text x="7.014" y="1.67" class="f">+</text></symbol><symbol id="20"><text x="2.004" y="1.67" class="g">#</text><text x="4.008" y="1.67" class="g">│</text><text x="6.012" y="1.67" class="g">Value</text><text x="22.044" y="1.67" class="g">│</text><text x="24.048" y="1.67" class="g">Type</text></symbol><symbol id="21"><text x="1.002" y="1.67" class="g">───┼─────────────────┼────────</text></symbol><symbol id="22"><text x="2.004" y="1.67" class="g">1</text><text x="4.008" y="1.67" class="g">│</text><text x="6.012" y="1.67" class="g">Hello,</text><text x="13.026" y="1.67" class="g">world!21</text><text x="22.044" y="1.67" class="g">│</text><text x="24.048" y="1.67" class="h">String</text></symbol><symbol id="a"><path fill="transparent" d="M0 0h80v21H0z"/></symbol><symbol id="b"><path fill="#6f7683" d="M0 0h1.102v2.171H0z"/></symbol></defs><path class="a" d="M0 0h80v45.591H0z"/><g style="animation-duration:8.383589s;animation-iteration-count:infinite;animation-name:k;animation-timing-function:steps(1,end)"><svg width="3840"><svg><use xlink:href="#a"/><use xlink:href="#b" x="-.004"/></svg><svg x="80"><use xlink:href="#a"/><use xlink:href="#b" x="-.004"/></svg><svg x="160"><use xlink:href="#a"/><use xlink:href="#b" x="6.996"/><use xlink:href="#1"/></svg><svg x="240"><use xlink:href="#a"/><use xlink:href="#b" x="6.996"/><use xlink:href="#1"/></svg><svg x="320"><use xlink:href="#a"/><use xlink:href="#b" x="7.996"/><text y="1.67" class="f">Input:</text><text x="7.014" y="1.67" class="f">&quot;</text></svg><svg x="400"><use xlink:href="#a"/><use xlink:href="#b" x="8.996"/><text y="1.67" class="f">Input:</text><text x="7.014" y="1.67" class="f">&quot;H</text></svg><svg x="480"><use xlink:href="#a"/><use xlink:href="#b" x="9.996"/><text y="1.67" class="f">Input:</text><text x="7.014" y="1.67" class="f">&quot;He</text></svg><svg x="560"><use xlink:href="#a"/><use xlink:href="#b" x="10.996"/><text y="1.67" class="f">Input:</text><text x="7.014" y="1.67" class="f">&quot;Hel</text></svg><svg x="640"><use xlink:href="#a"/><use xlink:href="#b" x="11.996"/><text y="1.67" class="f">Input:</text><text x="7.014" y="1.67" class="f">&quot;Hell</text></svg><svg x="720"><use xlink:href="#a"/><use xlink:href="#b" x="12.996"/><text y="1.67" class="f">Input:</text><text x="7.014" y="1.67" class="f">&quot;Hello</text></svg><svg x="800"><use xlink:href="#a"/><use xlink:href="#b" x="13.996"/><use xlink:href="#2"/></svg><svg x="880"><use xlink:href="#a"/><use xlink:href="#b" x="14.996"/><use xlink:href="#2"/></svg><svg x="960"><use xlink:href="#a"/><use xlink:href="#b" x="15.996"/><text y="1.67" class="f">Input:</text><text x="7.014" y="1.67" class="f">&quot;Hello,</text><text x="15.03" y="1.67" class="f">w</text></svg><svg x="1040"><use xlink:href="#a"/><use xlink:href="#b" x="16.996"/><text y="1.67" class="f">Input:</text><text x="7.014" y="1.67" class="f">&quot;Hello,</text><text x="15.03" y="1.67" class="f">wo</text></svg><svg x="1120"><use xlink:href="#a"/><use xlink:href="#b" x="17.996"/><text y="1.67" class="f">Input:</text><text x="7.014" y="1.67" class="f">&quot;Hello,</text><text x="15.03" y="1.67" class="f">wor</text></svg><svg x="1200"><use xlink:href="#a"/><use xlink:href="#b" x="18.996"/><text y="1.67" class="f">Input:</text><text x="7.014" y="1.67" class="f">&quot;Hello,</text><text x="15.03" y="1.67" class="f">worl</text></svg><svg x="1280"><use xlink:href="#a"/><use xlink:href="#b" x="19.996"/><text y="1.67" class="f">Input:</text><text x="7.014" y="1.67" class="f">&quot;Hello,</text><text x="15.03" y="1.67" class="f">world</text></svg><svg x="1360"><use xlink:href="#a"/><use xlink:href="#b" x="20.996"/><text y="1.67" class="f">Input:</text><text x="7.014" y="1.67" class="f">&quot;Hello,</text><text x="15.03" y="1.67" class="f">world!</text></svg><svg x="1440"><use xlink:href="#a"/><use xlink:href="#b" x="21.996"/><use xlink:href="#3"/></svg><svg x="1520"><use xlink:href="#a"/><use xlink:href="#b" x="-.004" y="2.146"/><use xlink:href="#3"/></svg><svg x="1600"><use xlink:href="#a"/><use xlink:href="#b" x="-.004" y="2.146"/><use xlink:href="#3"/></svg><svg x="1680"><use xlink:href="#a"/><use xlink:href="#b" x="-.004" y="13.001"/><use xlink:href="#3"/><use xlink:href="#4" y="4.342"/><use xlink:href="#5" y="6.513"/><use xlink:href="#6" y="8.684"/></svg><svg x="1760"><use xlink:href="#a"/><use xlink:href="#b" x="6.996" y="13.001"/><use xlink:href="#3"/><use xlink:href="#4" y="4.342"/><use xlink:href="#5" y="6.513"/><use xlink:href="#6" y="8.684"/><use xlink:href="#1" y="13.026"/></svg><svg x="1840"><use xlink:href="#a"/><use xlink:href="#b" x="7.996" y="13.001"/><use xlink:href="#3"/><use xlink:href="#4" y="4.342"/><use xlink:href="#5" y="6.513"/><use xlink:href="#6" y="8.684"/><use xlink:href="#7" y="13.026"/></svg><svg x="1920"><use xlink:href="#a"/><use xlink:href="#b" x="8.996" y="13.001"/><use xlink:href="#3"/><use xlink:href="#4" y="4.342"/><use xlink:href="#5" y="6.513"/><use xlink:href="#6" y="8.684"/><use xlink:href="#7" y="13.026"/></svg><svg x="2000"><use xlink:href="#a"/><use xlink:href="#b" x="9.996" y="13.001"/><use xlink:href="#3"/><use xlink:href="#4" y="4.342"/><use xlink:href="#5" y="6.513"/><use xlink:href="#6" y="8.684"/><use xlink:href="#8" y="13.026"/></svg><svg x="2080"><use xlink:href="#a"/><use xlink:href="#b" x="10.996" y="13.001"/><use xlink:href="#3"/><use xlink:href="#4" y="4.342"/><use xlink:href="#5" y="6.513"/><use xlink:href="#6" y="8.684"/><use xlink:href="#8" y="13.026"/></svg><svg x="2160"><use xlink:href="#a"/><use xlink:href="#b" x="11.996" y="13.001"/><use xlink:href="#3"/><use xlink:href="#4" y="4.342"/><use xlink:href="#5" y="6.513"/><use xlink:href="#6" y="8.684"/><use xlink:href="#9" y="13.026"/></svg><svg x="2240"><use xlink:href="#a"/><use xlink:href="#b" x="12.996" y="13.001"/><use xlink:href="#3"/><use xlink:href="#4" y="4.342"/><use xlink:href="#5" y="6.513"/><use xlink:href="#6" y="8.684"/><use xlink:href="#9" y="13.026"/></svg><svg x="2320"><use xlink:href="#a"/><use xlink:href="#b" x="13.996" y="13.001"/><use xlink:href="#3"/><use xlink:href="#4" y="4.342"/><use xlink:href="#5" y="6.513"/><use xlink:href="#6" y="8.684"/><use xlink:href="#10" y="13.026"/></svg><svg x="2400"><use xlink:href="#a"/><use xlink:href="#b" x="14.996" y="13.001"/><use xlink:href="#3"/><use xlink:href="#4" y="4.342"/><use xlink:href="#5" y="6.513"/><use xlink:href="#6" y="8.684"/><use xlink:href="#10" y="13.026"/></svg><svg x="2480"><use xlink:href="#a"/><use xlink:href="#b" x="15.996" y="13.001"/><use xlink:href="#3"/><use xlink:href="#4" y="4.342"/><use xlink:href="#5" y="6.513"/><use xlink:href="#6" y="8.684"/><use xlink:href="#11" y="13.026"/></svg><svg x="2560"><use xlink:href="#a"/><use xlink:href="#b" x="16.996" y="13.001"/><use xlink:href="#3"/><use xlink:href="#4" y="4.342"/><use xlink:href="#5" y="6.513"/><use xlink:href="#6" y="8.684"/><use xlink:href="#11" y="13.026"/></svg><svg x="2640"><use xlink:href="#a"/><use xlink:href="#b" x="17.996" y="13.001"/><use xlink:href="#3"/><use xlink:href="#4" y="4.342"/><use xlink:href="#5" y="6.513"/><use xlink:href="#6" y="8.684"/><use xlink:href="#12" y="13.026"/></svg><svg x="2720"><use xlink:href="#a"/><use xlink:href="#b" x="-.004" y="15.172"/><use xlink:href="#3"/><use xlink:href="#4" y="4.342"/><use xlink:href="#5" y="6.513"/><use xlink:href="#6" y="8.684"/><use xlink:href="#12" y="13.026"/></svg><svg x="2800"><use xlink:href="#a"/><use xlink:href="#b" x="-.004" y="15.172"/><use xlink:href="#3"/><use xlink:href="#4" y="4.342"/><use xlink:href="#5" y="6.513"/><use xlink:href="#6" y="8.684"/><use xlink:href="#12" y="13.026"/></svg><svg x="2880"><use xlink:href="#a"/><use xlink:href="#b" x="-.004" y="30.369"/><use xlink:href="#3"/><use xlink:href="#4" y="4.342"/><use xlink:href="#5" y="6.513"/><use xlink:href="#6" y="8.684"/><use xlink:href="#12" y="13.026"/><use xlink:href="#4" y="17.368"/><use xlink:href="#5" y="19.539"/><use xlink:href="#13" y="21.71"/><use xlink:href="#14" y="23.881"/><use xlink:href="#15" y="26.052"/></svg><svg x="2960"><use xlink:href="#a"/><use xlink:href="#b" x="6.996" y="30.369"/><use xlink:href="#3"/><use xlink:href="#4" y="4.342"/><use xlink:href="#5" y="6.513"/><use xlink:href="#6" y="8.684"/><use xlink:href="#12" y="13.026"/><use xlink:href="#4" y="17.368"/><use xlink:href="#5" y="19.539"/><use xlink:href="#13" y="21.71"/><use xlink:href="#14" y="23.881"/><use xlink:href="#15" y="26.052"/><use xlink:href="#1" y="30.394"/></svg><svg x="3040"><use xlink:href="#a"/><use xlink:href="#b" x="7.996" y="30.369"/><use xlink:href="#3"/><use xlink:href="#4" y="4.342"/><use xlink:href="#5" y="6.513"/><use xlink:href="#6" y="8.684"/><use xlink:href="#12" y="13.026"/><use xlink:href="#4" y="17.368"/><use xlink:href="#5" y="19.539"/><use xlink:href="#13" y="21.71"/><use xlink:href="#14" y="23.881"/><use xlink:href="#15" y="26.052"/><use xlink:href="#16" y="30.394"/></svg><svg x="3120"><use xlink:href="#a"/><use xlink:href="#b" x="-.004" y="32.54"/><use xlink:href="#3"/><use xlink:href="#4" y="4.342"/><use xlink:href="#5" y="6.513"/><use xlink:href="#6" y="8.684"/><use xlink:href="#12" y="13.026"/><use xlink:href="#4" y="17.368"/><use xlink:href="#5" y="19.539"/><use xlink:href="#13" y="21.71"/><use xlink:href="#14" y="23.881"/><use xlink:href="#15" y="26.052"/><use xlink:href="#16" y="30.394"/></svg><svg x="3200"><use xlink:href="#a"/><use xlink:href="#b" x="-.004" y="32.54"/><use xlink:href="#3"/><use xlink:href="#4" y="4.342"/><use xlink:href="#5" y="6.513"/><use xlink:href="#6" y="8.684"/><use xlink:href="#12" y="13.026"/><use xlink:href="#4" y="17.368"/><use xlink:href="#5" y="19.539"/><use xlink:href="#13" y="21.71"/><use xlink:href="#14" y="23.881"/><use xlink:href="#15" y="26.052"/><use xlink:href="#16" y="30.394"/></svg><svg x="3280"><use xlink:href="#a"/><use xlink:href="#b" x="6.996" y="43.395"/><use xlink:href="#4" y="2.171"/><use xlink:href="#5" y="4.342"/><use xlink:href="#6" y="6.513"/><use xlink:href="#12" y="10.855"/><use xlink:href="#4" y="15.197"/><use xlink:href="#5" y="17.368"/><use xlink:href="#13" y="19.539"/><use xlink:href="#14" y="21.71"/><use xlink:href="#15" y="23.881"/><use xlink:href="#16" y="28.223"/><use xlink:href="#4" y="32.565"/><use xlink:href="#5" y="34.736"/><use xlink:href="#17" y="36.907"/><use xlink:href="#18" y="39.078"/><use xlink:href="#1" y="43.42"/></svg><svg x="3360"><use xlink:href="#a"/><use xlink:href="#b" x="7.996" y="43.395"/><use xlink:href="#4" y="2.171"/><use xlink:href="#5" y="4.342"/><use xlink:href="#6" y="6.513"/><use xlink:href="#12" y="10.855"/><use xlink:href="#4" y="15.197"/><use xlink:href="#5" y="17.368"/><use xlink:href="#13" y="19.539"/><use xlink:href="#14" y="21.71"/><use xlink:href="#15" y="23.881"/><use xlink:href="#16" y="28.223"/><use xlink:href="#4" y="32.565"/><use xlink:href="#5" y="34.736"/><use xlink:href="#17" y="36.907"/><use xlink:href="#18" y="39.078"/><use xlink:href="#19" y="43.42"/></svg><svg x="3440"><use xlink:href="#a"/><use xlink:href="#b" x="-.004" y="43.395"/><use xlink:href="#4"/><use xlink:href="#5" y="2.171"/><use xlink:href="#6" y="4.342"/><use xlink:href="#12" y="8.684"/><use xlink:href="#4" y="13.026"/><use xlink:href="#5" y="15.197"/><use xlink:href="#13" y="17.368"/><use xlink:href="#14" y="19.539"/><use xlink:href="#15" y="21.71"/><use xlink:href="#16" y="26.052"/><use xlink:href="#4" y="30.394"/><use xlink:href="#5" y="32.565"/><use xlink:href="#17" y="34.736"/><use xlink:href="#18" y="36.907"/><use xlink:href="#19" y="41.249"/></svg><svg x="3520"><use xlink:href="#a"/><use xlink:href="#b" x="-.004" y="43.395"/><use xlink:href="#4" y="2.171"/><use xlink:href="#5" y="4.342"/><use xlink:href="#13" y="6.513"/><use xlink:href="#14" y="8.684"/><use xlink:href="#15" y="10.855"/><use xlink:href="#16" y="15.197"/><use xlink:href="#4" y="19.539"/><use xlink:href="#5" y="21.71"/><use xlink:href="#17" y="23.881"/><use xlink:href="#18" y="26.052"/><use xlink:href="#19" y="30.394"/><use xlink:href="#20" y="34.736"/><use xlink:href="#21" y="36.907"/><use xlink:href="#22" y="39.078"/></svg><svg x="3600"><use xlink:href="#a"/><use xlink:href="#b" x="6.996" y="43.395"/><use xlink:href="#4" y="2.171"/><use xlink:href="#5" y="4.342"/><use xlink:href="#13" y="6.513"/><use xlink:href="#14" y="8.684"/><use xlink:href="#15" y="10.855"/><use xlink:href="#16" y="15.197"/><use xlink:href="#4" y="19.539"/><use xlink:href="#5" y="21.71"/><use xlink:href="#17" y="23.881"/><use xlink:href="#18" y="26.052"/><use xlink:href="#19" y="30.394"/><use xlink:href="#20" y="34.736"/><use xlink:href="#21" y="36.907"/><use xlink:href="#22" y="39.078"/><use xlink:href="#1" y="43.42"/></svg><svg x="3680"><use xlink:href="#a"/><use xlink:href="#b" x="6.996" y="43.395"/><use xlink:href="#4" y="2.171"/><use xlink:href="#5" y="4.342"/><use xlink:href="#13" y="6.513"/><use xlink:href="#14" y="8.684"/><use xlink:href="#15" y="10.855"/><use xlink:href="#16" y="15.197"/><use xlink:href="#4" y="19.539"/><use xlink:href="#5" y="21.71"/><use xlink:href="#17" y="23.881"/><use xlink:href="#18" y="26.052"/><use xlink:href="#19" y="30.394"/><use xlink:href="#20" y="34.736"/><use xlink:href="#21" y="36.907"/><use xlink:href="#22" y="39.078"/><use xlink:href="#1" y="43.42"/></svg><svg x="3760"><use xlink:href="#a"/><use xlink:href="#b" x="6.996" y="43.395"/><use xlink:href="#4" y="2.171"/><use xlink:href="#5" y="4.342"/><use xlink:href="#13" y="6.513"/><use xlink:href="#14" y="8.684"/><use xlink:href="#15" y="10.855"/><use xlink:href="#16" y="15.197"/><use xlink:href="#4" y="19.539"/><use xlink:href="#5" y="21.71"/><use xlink:href="#17" y="23.881"/><use xlink:href="#18" y="26.052"/><use xlink:href="#19" y="30.394"/><use xlink:href="#20" y="34.736"/><use xlink:href="#21" y="36.907"/><use xlink:href="#22" y="39.078"/><use xlink:href="#1" y="43.42"/></svg></svg></g></g></svg></svg>